# xmcd
# 
# Track frame offsets:
#	150
#	23107
#	56625
# 
# Disc length: 1059 seconds
# 
# Revision: 0
# Processed by: cddbd v1.5PL3 Copyright (c) Steve Scherf et al.
# Submitted via: CD Titler Ver.2.00beta4
# 
DISCID=1e042103
DTITLE=田中公平、吉田古奈美 - 君こそ我がおたく
DYEAR=1900
DGENRE=
TTITLE0=君こそ我がおたく
TTITLE1=太っ腹LDC
TTITLE2=君こそ我がおたく(オリジナル・カラオケ)
EXTD=
EXTT0=
EXTT1=
EXTT2=
PLAYORDER=
